<svg xmlns="http://www.w3.org/2000/svg" xmlns:xlink="http://www.w3.org/1999/xlink" width="500" zoomAndPan="magnify" viewBox="0 0 375 374.999991" height="500" preserveAspectRatio="xMidYMid meet" version="1.2"><defs><clipPath id="57b5e49ae0"><path d="M 35.167969 252 L 115 252 L 115 331.824219 L 35.167969 331.824219 Z M 35.167969 252 "/></clipPath><clipPath id="753463311e"><path d="M 148 252 L 228 252 L 228 331.824219 L 148 331.824219 Z M 148 252 "/></clipPath><clipPath id="c2f6bd0af4"><path d="M 147 43.074219 L 227 43.074219 L 227 123 L 147 123 Z M 147 43.074219 "/></clipPath><clipPath id="ae133c0b4c"><path d="M 260 252 L 339.667969 252 L 339.667969 331.824219 L 260 331.824219 Z M 260 252 "/></clipPath></defs><g id="d1d266bc21"><path style=" stroke:none;fill-rule:nonzero;fill:#ffffff;fill-opacity:1;" d="M 283.554688 259.972656 C 277.484375 263.105469 272.414062 267.902344 268.945312 273.765625 C 265.742188 279.171875 263.902344 285.484375 263.902344 292.230469 C 263.902344 312.25 280.121094 328.488281 300.128906 328.488281 C 320.140625 328.488281 336.359375 312.25 336.359375 292.230469 C 336.359375 272.203125 320.140625 255.972656 300.128906 255.972656 C 294.160156 255.972656 288.527344 257.414062 283.554688 259.972656 Z M 283.554688 259.972656 "/><path style=" stroke:none;fill-rule:nonzero;fill:#ffffff;fill-opacity:1;" d="M 306.089844 320.980469 C 286.078125 320.980469 269.859375 304.742188 269.859375 284.722656 C 269.859375 277.976562 271.699219 271.664062 274.902344 266.257812 C 274.929688 266.214844 274.953125 266.175781 274.980469 266.136719 C 272.644531 268.390625 270.609375 270.953125 268.945312 273.765625 C 265.742188 279.171875 263.902344 285.484375 263.902344 292.230469 C 263.902344 312.25 280.121094 328.488281 300.128906 328.488281 C 313.359375 328.488281 324.925781 321.390625 331.25 310.796875 C 324.730469 317.097656 315.867188 320.980469 306.089844 320.980469 Z M 306.089844 320.980469 "/><path style=" stroke:none;fill-rule:nonzero;fill:#ffffff;fill-opacity:1;" d="M 151.191406 82.734375 C 151.191406 95.367188 157.644531 106.492188 167.433594 112.984375 C 173.160156 116.78125 180.03125 118.992188 187.417969 118.992188 C 193.277344 118.992188 198.8125 117.601562 203.703125 115.136719 C 215.53125 109.167969 223.648438 96.898438 223.648438 82.734375 C 223.648438 62.714844 207.429688 46.476562 187.417969 46.476562 C 167.40625 46.476562 151.191406 62.714844 151.191406 82.734375 Z M 151.191406 82.734375 "/><path style=" stroke:none;fill-rule:nonzero;fill:#ffffff;fill-opacity:1;" d="M 209.882812 107.40625 C 204.988281 109.871094 199.457031 111.261719 193.597656 111.261719 C 186.210938 111.261719 179.339844 109.050781 173.613281 105.253906 C 163.824219 98.761719 157.367188 87.636719 157.367188 75.003906 C 157.367188 68.226562 159.230469 61.890625 162.464844 56.464844 C 155.523438 63.070312 151.191406 72.394531 151.191406 82.734375 C 151.191406 95.367188 157.644531 106.492188 167.433594 112.984375 C 173.160156 116.78125 180.03125 118.992188 187.417969 118.992188 C 193.277344 118.992188 198.8125 117.601562 203.703125 115.136719 C 209.867188 112.027344 215.019531 107.203125 218.542969 101.292969 C 215.980469 103.730469 213.066406 105.800781 209.882812 107.40625 Z M 209.882812 107.40625 "/><path style=" stroke:none;fill-rule:nonzero;fill:#9bc9ff;fill-opacity:1;" d="M 226.125 155.816406 C 215.042969 162.007812 207.550781 173.867188 207.550781 187.480469 C 207.550781 194.101562 209.316406 200.296875 212.40625 205.636719 C 215.890625 211.648438 221.054688 216.574219 227.253906 219.757812 C 232.207031 222.304688 237.820312 223.742188 243.769531 223.742188 C 250.058594 223.742188 255.976562 222.136719 261.132812 219.308594 C 272.378906 213.160156 280.007812 201.214844 280.007812 187.480469 C 280.007812 167.453125 263.78125 151.222656 243.769531 151.222656 C 237.363281 151.222656 231.347656 152.894531 226.125 155.816406 Z M 226.125 155.816406 "/><path style=" stroke:none;fill-rule:nonzero;fill:#9bc9ff;fill-opacity:1;" d="M 267.753906 213.347656 C 262.597656 216.175781 256.679688 217.777344 250.390625 217.777344 C 244.441406 217.777344 238.828125 216.339844 233.875 213.796875 C 227.671875 210.609375 222.507812 205.6875 219.027344 199.671875 C 215.9375 194.332031 214.167969 188.136719 214.167969 181.519531 C 214.167969 172.417969 217.519531 164.105469 223.050781 157.742188 C 213.679688 164.292969 207.550781 175.167969 207.550781 187.480469 C 207.550781 194.101562 209.316406 200.296875 212.40625 205.632812 C 215.890625 211.648438 221.054688 216.574219 227.253906 219.757812 C 232.207031 222.304688 237.820312 223.742188 243.769531 223.742188 C 250.058594 223.742188 255.976562 222.136719 261.132812 219.308594 C 264.9375 217.230469 268.324219 214.488281 271.144531 211.238281 C 270.054688 212 268.925781 212.707031 267.753906 213.347656 Z M 267.753906 213.347656 "/><path style=" stroke:none;fill-rule:nonzero;fill:#ffffff;fill-opacity:1;" d="M 171.3125 259.828125 C 159.484375 265.796875 151.367188 278.066406 151.367188 292.230469 C 151.367188 312.25 167.585938 328.488281 187.597656 328.488281 C 207.609375 328.488281 223.828125 312.25 223.828125 292.230469 C 223.828125 279.390625 217.160156 268.117188 207.105469 261.667969 C 201.472656 258.058594 194.78125 255.972656 187.597656 255.972656 C 181.746094 255.972656 176.210938 257.363281 171.3125 259.828125 Z M 171.3125 259.828125 "/><path style=" stroke:none;fill-rule:nonzero;fill:#ffffff;fill-opacity:1;" d="M 195.101562 322.527344 C 175.089844 322.527344 158.871094 306.289062 158.871094 286.269531 C 158.871094 276.484375 162.742188 267.609375 169.035156 261.082031 C 158.457031 267.414062 151.367188 278.996094 151.367188 292.230469 C 151.367188 312.25 167.585938 328.488281 187.597656 328.488281 C 197.828125 328.488281 207.0625 324.238281 213.648438 317.414062 C 208.222656 320.65625 201.878906 322.527344 195.101562 322.527344 Z M 195.101562 322.527344 "/><path style=" stroke:none;fill-rule:nonzero;fill:#9bc9ff;fill-opacity:1;" d="M 38.480469 291.695312 C 38.480469 311.714844 54.695312 327.953125 74.707031 327.953125 C 94.71875 327.953125 110.9375 311.714844 110.9375 291.695312 C 110.9375 285.140625 109.203125 278.992188 106.164062 273.6875 C 103.132812 268.394531 98.804688 263.933594 93.605469 260.753906 C 88.105469 257.382812 81.632812 255.433594 74.707031 255.433594 C 54.695312 255.433594 38.480469 271.667969 38.480469 291.695312 Z M 38.480469 291.695312 "/><path style=" stroke:none;fill-rule:nonzero;fill:#9bc9ff;fill-opacity:1;" d="M 82.871094 322.652344 C 62.859375 322.652344 46.644531 306.414062 46.644531 286.394531 C 46.644531 275.382812 51.550781 265.527344 59.289062 258.878906 C 46.992188 264.675781 38.480469 277.1875 38.480469 291.695312 C 38.480469 311.714844 54.695312 327.953125 74.707031 327.953125 C 83.71875 327.953125 91.949219 324.652344 98.289062 319.207031 C 93.609375 321.414062 88.386719 322.652344 82.871094 322.652344 Z M 82.871094 322.652344 "/><path style=" stroke:none;fill-rule:nonzero;fill:#9bc9ff;fill-opacity:1;" d="M 94.835938 187.480469 C 94.835938 201.40625 102.683594 213.5 114.1875 219.566406 C 119.222656 222.230469 124.964844 223.742188 131.058594 223.742188 C 137.652344 223.742188 143.835938 221.980469 149.164062 218.898438 C 154.664062 215.71875 159.253906 211.125 162.4375 205.621094 C 165.523438 200.289062 167.289062 194.09375 167.289062 187.480469 C 167.289062 173.011719 158.824219 160.523438 146.582031 154.714844 C 141.882812 152.476562 136.613281 151.222656 131.058594 151.222656 C 111.054688 151.222656 94.835938 167.453125 94.835938 187.480469 Z M 94.835938 187.480469 "/><path style=" stroke:none;fill-rule:nonzero;fill:#9bc9ff;fill-opacity:1;" d="M 138.5625 218.882812 C 132.464844 218.882812 126.726562 217.371094 121.6875 214.707031 C 110.183594 208.640625 102.339844 196.550781 102.339844 182.621094 C 102.339844 171.453125 107.390625 161.464844 115.324219 154.8125 C 103.199219 160.675781 94.835938 173.101562 94.835938 187.480469 C 94.835938 201.40625 102.683594 213.5 114.1875 219.566406 C 119.222656 222.230469 124.964844 223.742188 131.058594 223.742188 C 137.652344 223.742188 143.835938 221.980469 149.164062 218.898438 C 150.976562 217.851562 152.675781 216.636719 154.273438 215.300781 C 149.519531 217.59375 144.191406 218.882812 138.5625 218.882812 Z M 138.5625 218.882812 "/><g clip-rule="nonzero" clip-path="url(#57b5e49ae0)"><path style=" stroke:none;fill-rule:nonzero;fill:#1e81ce;fill-opacity:1;" d="M 114.246094 291.695312 C 114.246094 313.511719 96.507812 331.265625 74.707031 331.265625 C 52.90625 331.265625 35.167969 313.511719 35.167969 291.695312 C 35.167969 269.875 52.90625 252.121094 74.707031 252.121094 C 82.003906 252.121094 89.136719 254.128906 95.335938 257.929688 C 100.996094 261.394531 105.730469 266.273438 109.035156 272.039062 C 112.445312 277.992188 114.246094 284.789062 114.246094 291.695312 Z M 41.789062 291.695312 C 41.789062 309.859375 56.554688 324.640625 74.707031 324.640625 C 92.859375 324.640625 107.625 309.859375 107.625 291.695312 C 107.625 285.945312 106.128906 280.285156 103.292969 275.335938 C 100.542969 270.53125 96.59375 266.464844 91.878906 263.582031 C 86.722656 260.417969 80.785156 258.746094 74.707031 258.746094 C 56.554688 258.746094 41.789062 273.527344 41.789062 291.695312 Z M 41.789062 291.695312 "/></g><g clip-rule="nonzero" clip-path="url(#753463311e)"><path style=" stroke:none;fill-rule:nonzero;fill:#1e81ce;fill-opacity:1;" d="M 227.136719 292.230469 C 227.136719 314.050781 209.398438 331.800781 187.597656 331.800781 C 165.796875 331.800781 148.058594 314.050781 148.058594 292.230469 C 148.058594 277.195312 156.398438 263.644531 169.824219 256.871094 C 175.378906 254.074219 181.355469 252.660156 187.597656 252.660156 C 195.179688 252.660156 202.542969 254.808594 208.890625 258.878906 C 220.316406 266.203125 227.136719 278.671875 227.136719 292.230469 Z M 154.679688 292.230469 C 154.679688 310.398438 169.445312 325.175781 187.597656 325.175781 C 205.75 325.175781 220.515625 310.398438 220.515625 292.230469 C 220.515625 280.941406 214.835938 270.558594 205.320312 264.457031 C 200.039062 261.074219 193.910156 259.285156 187.597656 259.285156 C 182.398438 259.285156 177.421875 260.460938 172.800781 262.785156 C 161.625 268.425781 154.679688 279.710938 154.679688 292.230469 Z M 154.679688 292.230469 "/></g><path style=" stroke:none;fill-rule:nonzero;fill:#1e81ce;fill-opacity:1;" d="M 170.597656 187.480469 C 170.597656 194.441406 168.765625 201.289062 165.300781 207.28125 C 161.828125 213.289062 156.820312 218.296875 150.820312 221.765625 C 144.835938 225.226562 138.003906 227.054688 131.058594 227.054688 C 124.648438 227.054688 118.28125 225.476562 112.640625 222.496094 C 99.621094 215.628906 91.527344 202.210938 91.527344 187.480469 C 91.527344 165.664062 109.261719 147.910156 131.058594 147.910156 C 136.992188 147.910156 142.695312 149.195312 148.003906 151.722656 C 161.730469 158.238281 170.597656 172.273438 170.597656 187.480469 Z M 98.148438 187.480469 C 98.148438 199.746094 104.886719 210.917969 115.730469 216.636719 C 120.488281 219.152344 125.648438 220.429688 131.058594 220.429688 C 136.84375 220.429688 142.53125 218.90625 147.507812 216.03125 C 152.503906 213.140625 156.675781 208.96875 159.570312 203.960938 C 162.453125 198.976562 163.980469 193.277344 163.980469 187.480469 C 163.980469 174.820312 156.59375 163.132812 145.164062 157.707031 C 140.746094 155.601562 136 154.535156 131.058594 154.535156 C 112.910156 154.535156 98.148438 169.316406 98.148438 187.480469 Z M 98.148438 187.480469 "/><path style=" stroke:none;fill-rule:nonzero;fill:#1e81ce;fill-opacity:1;" d="M 283.316406 187.480469 C 283.316406 201.960938 275.425781 215.269531 262.722656 222.214844 C 256.953125 225.378906 250.398438 227.054688 243.769531 227.054688 C 237.425781 227.054688 231.359375 225.589844 225.746094 222.707031 C 218.964844 219.226562 213.363281 213.894531 209.542969 207.296875 C 206.074219 201.300781 204.238281 194.449219 204.238281 187.484375 C 204.238281 173.15625 212.007812 159.914062 224.507812 152.921875 C 230.371094 149.644531 237.03125 147.910156 243.769531 147.910156 C 265.578125 147.910156 283.316406 165.664062 283.316406 187.480469 Z M 210.859375 187.480469 C 210.859375 193.285156 212.382812 198.988281 215.273438 203.972656 C 218.453125 209.472656 223.121094 213.910156 228.765625 216.8125 C 233.4375 219.210938 238.484375 220.429688 243.769531 220.429688 C 249.289062 220.429688 254.746094 219.035156 259.542969 216.402344 C 270.125 210.617188 276.695312 199.539062 276.695312 187.480469 C 276.695312 169.316406 261.925781 154.535156 243.769531 154.535156 C 238.160156 154.535156 232.617188 155.976562 227.738281 158.707031 C 217.328125 164.527344 210.859375 175.550781 210.859375 187.480469 Z M 210.859375 187.480469 "/><g clip-rule="nonzero" clip-path="url(#c2f6bd0af4)"><path style=" stroke:none;fill-rule:nonzero;fill:#1e81ce;fill-opacity:1;" d="M 226.957031 82.734375 C 226.957031 97.769531 218.617188 111.320312 205.191406 118.09375 C 199.644531 120.890625 193.667969 122.304688 187.417969 122.304688 C 179.621094 122.304688 172.078125 120.035156 165.605469 115.746094 C 154.507812 108.382812 147.878906 96.042969 147.878906 82.734375 C 147.878906 60.914062 165.617188 43.164062 187.417969 43.164062 C 209.21875 43.164062 226.957031 60.914062 226.957031 82.734375 Z M 154.5 82.734375 C 154.5 93.816406 160.019531 104.09375 169.261719 110.222656 C 174.648438 113.792969 180.925781 115.679688 187.417969 115.679688 C 192.625 115.679688 197.601562 114.503906 202.214844 112.179688 C 213.394531 106.535156 220.339844 95.253906 220.339844 82.734375 C 220.339844 64.566406 205.570312 49.789062 187.417969 49.789062 C 169.265625 49.789062 154.5 64.566406 154.5 82.734375 Z M 154.5 82.734375 "/></g><g clip-rule="nonzero" clip-path="url(#ae133c0b4c)"><path style=" stroke:none;fill-rule:nonzero;fill:#1e81ce;fill-opacity:1;" d="M 339.667969 292.230469 C 339.667969 314.050781 321.933594 331.800781 300.128906 331.800781 C 278.328125 331.800781 260.59375 314.050781 260.59375 292.230469 C 260.59375 285.125 262.496094 278.15625 266.097656 272.078125 C 269.898438 265.65625 275.410156 260.449219 282.039062 257.03125 C 287.675781 254.128906 293.761719 252.660156 300.128906 252.660156 C 321.933594 252.660156 339.667969 270.410156 339.667969 292.230469 Z M 267.210938 292.230469 C 267.210938 310.398438 281.980469 325.175781 300.128906 325.175781 C 318.28125 325.175781 333.050781 310.398438 333.050781 292.230469 C 333.050781 274.0625 318.28125 259.285156 300.128906 259.285156 C 294.824219 259.285156 289.757812 260.507812 285.066406 262.917969 C 279.550781 265.765625 274.960938 270.101562 271.792969 275.453125 C 268.796875 280.511719 267.210938 286.3125 267.210938 292.230469 Z M 267.210938 292.230469 "/></g><path style=" stroke:none;fill-rule:nonzero;fill:#1e81ce;fill-opacity:1;" d="M 306.570312 295.71875 C 306.570312 296.613281 306.210938 297.496094 305.523438 298.140625 C 304.421875 299.175781 302.753906 299.328125 301.480469 298.511719 L 218.570312 245.464844 L 193.710938 297.160156 C 193.171875 298.277344 192.050781 299.003906 190.808594 299.03125 C 189.566406 299.0625 188.410156 298.394531 187.816406 297.296875 L 158.898438 243.84375 L 79.980469 294.390625 C 78.726562 295.195312 77.089844 295.0625 75.984375 294.0625 C 74.875 293.070312 74.570312 291.453125 75.234375 290.121094 L 128.171875 184.15625 C 128.183594 184.132812 128.199219 184.105469 128.210938 184.082031 L 181.148438 78.121094 C 181.699219 77.019531 182.8125 76.3125 184.042969 76.289062 C 185.269531 76.261719 186.414062 76.921875 187.007812 78 L 244.570312 182.410156 C 245.042969 182.539062 245.496094 182.78125 245.882812 183.125 C 246.859375 183.988281 247.21875 185.335938 246.855469 186.554688 L 306.160156 294.121094 C 306.4375 294.625 306.570312 295.175781 306.570312 295.71875 Z M 221.460938 239.453125 L 294.074219 285.914062 L 243.355469 193.921875 Z M 187.449219 217.6875 L 238.449219 185.019531 L 184.253906 86.71875 L 135.445312 184.417969 Z M 215.84375 235.859375 L 235.644531 194.683594 L 193.59375 221.621094 Z M 190.554688 288.445312 L 212.953125 241.871094 L 187.453125 225.554688 L 164.488281 240.261719 Z M 161.328125 234.417969 L 181.308594 221.621094 L 140.160156 195.296875 Z M 86.527344 282.332031 L 155.738281 238 L 131.269531 192.773438 Z M 86.527344 282.332031 "/></g></svg>